<?xml version="1.0" encoding="UTF-8" standalone="no"?>
<!-- Generator: Adobe Illustrator 21.0.0, SVG Export Plug-In . SVG Version: 6.00 Build 0)  -->

<svg
   xmlns:dc="http://purl.org/dc/elements/1.1/"
   xmlns:cc="http://creativecommons.org/ns#"
   xmlns:rdf="http://www.w3.org/1999/02/22-rdf-syntax-ns#"
   xmlns="http://www.w3.org/2000/svg"
   xmlns:sodipodi="http://sodipodi.sourceforge.net/DTD/sodipodi-0.dtd"
   xmlns:inkscape="http://www.inkscape.org/namespaces/inkscape"
   sodipodi:docname="grid_off_up.svg"
   id="svg10"
   xml:space="preserve"
   viewBox="0 0 24 24"
   y="0px"
   x="0px"
   version="1.1"
   style="enable-background:new 0 0 24 24;"
   inkscape:version="0.92.3 (2405546, 2018-03-11)"><metadata
   id="metadata16"><rdf:RDF><cc:Work
       rdf:about=""><dc:format>image/svg+xml</dc:format><dc:type
         rdf:resource="http://purl.org/dc/dcmitype/StillImage" /><dc:title></dc:title></cc:Work></rdf:RDF></metadata><defs
   id="defs14" /><sodipodi:namedview
   inkscape:current-layer="Layer_1"
   inkscape:cy="14.418076"
   inkscape:cx="6.9447104"
   inkscape:zoom="26.25"
   showgrid="true"
   id="namedview12"
   inkscape:window-height="480"
   inkscape:window-width="640"
   inkscape:pageshadow="2"
   inkscape:pageopacity="0"
   guidetolerance="10"
   gridtolerance="10"
   objecttolerance="10"
   borderopacity="1"
   bordercolor="#666666"
   pagecolor="#ffffff"
   inkscape:snap-center="true"
   inkscape:snap-object-midpoints="true"
   inkscape:snap-intersection-paths="true"><inkscape:grid
     type="xygrid"
     id="grid845" /></sodipodi:namedview>
<style
   type="text/css"
   id="style2">
	.st0{fill:none;}
	.st1{fill:#91DC5A;}
</style>
<g
   id="Layer_1">
	<path
   class="st0"
   d="M0,0h24v24H0V0z"
   id="path4" />
	<path
   class="st1"
   d="M8,4v1.5l2,2V4h4v4h-3.4l2,2H14v1.4l2,2V10h4v4h-3.5l2,2H20v1.5l2,2V4c0-1.1-0.9-2-2-2H4.6l2,2H8z M16,4h4v4   h-4V4z M1.3,1.3L0,2.5l2,2V20c0,1.1,0.9,2,2,2h15.5l2,2l1.3-1.3L1.3,1.3z M10,12.5l1.4,1.4H10V12.5z M4,6.5L5.4,8H4V6.5z M8,20H4   v-4h4V20z M8,14H4v-4h3.4L8,10.5V14z M14,20h-4v-4h3.4l0.6,0.5V20z M16,20v-1.5l1.5,1.5H16z"
   id="path6" />
</g>
<g
   id="svg6">
</g>
</svg>