<?xml version="1.0" encoding="UTF-8" standalone="no"?>
<!-- Generator: Adobe Illustrator 21.0.0, SVG Export Plug-In . SVG Version: 6.00 Build 0)  -->

<svg
   xmlns:dc="http://purl.org/dc/elements/1.1/"
   xmlns:cc="http://creativecommons.org/ns#"
   xmlns:rdf="http://www.w3.org/1999/02/22-rdf-syntax-ns#"
   xmlns="http://www.w3.org/2000/svg"
   xmlns:sodipodi="http://sodipodi.sourceforge.net/DTD/sodipodi-0.dtd"
   xmlns:inkscape="http://www.inkscape.org/namespaces/inkscape"
   version="1.1"
   id="Layer_1"
   x="0px"
   y="0px"
   viewBox="0 0 64.000001 64"
   xml:space="preserve"
   sodipodi:docname="menu_up.svg"
   width="64"
   height="64"
   inkscape:export-filename="C:\Users\Mare5\projects\chargehockey\assets\UI\64\menu_up.png"
   inkscape:export-xdpi="96"
   inkscape:export-ydpi="96"
   inkscape:version="0.92.3 (2405546, 2018-03-11)"><metadata
   id="metadata15"><rdf:RDF><cc:Work
       rdf:about=""><dc:format>image/svg+xml</dc:format><dc:type
         rdf:resource="http://purl.org/dc/dcmitype/StillImage" /><dc:title></dc:title></cc:Work></rdf:RDF></metadata><defs
   id="defs13" /><sodipodi:namedview
   pagecolor="#ffffff"
   bordercolor="#666666"
   borderopacity="1"
   objecttolerance="10"
   gridtolerance="10"
   guidetolerance="10"
   inkscape:pageopacity="0"
   inkscape:pageshadow="2"
   inkscape:window-width="640"
   inkscape:window-height="480"
   id="namedview11"
   showgrid="true"
   fit-margin-top="0"
   fit-margin-left="0"
   fit-margin-right="0"
   fit-margin-bottom="0"
   inkscape:snap-smooth-nodes="true"
   inkscape:snap-object-midpoints="true"
   inkscape:snap-center="true"
   inkscape:zoom="18.561553"
   inkscape:cx="23.194987"
   inkscape:cy="15.392429"
   inkscape:current-layer="Layer_1"><inkscape:grid
     type="xygrid"
     id="grid825"
     originx="-18.1"
     originy="-2.4" /></sodipodi:namedview>
<style
   type="text/css"
   id="style2">
	.st0{fill:#98E597;}
</style>

<path
   class="st0"
   d="M 36.476271,41.4 H 27.323728 C 24.88305,41.4 22.9,39.41695 22.9,36.976272 V 27.823728 C 22.9,25.38305 24.88305,23.4 27.323728,23.4 h 9.152543 C 38.916949,23.4 40.9,25.38305 40.9,27.823728 v 9.152544 C 40.9,39.41695 38.916949,41.4 36.476271,41.4 Z"
   id="path6"
   inkscape:connector-curvature="0"
   style="fill:#98e597;stroke-width:1.52542353" />

<path
   class="st0"
   d="M 36.476271,63.4 H 27.323728 C 24.88305,63.4 22.9,61.41695 22.9,58.976272 V 49.823728 C 22.9,47.38305 24.88305,45.4 27.323728,45.4 h 9.152543 C 38.916949,45.4 40.9,47.38305 40.9,49.823728 v 9.152544 C 40.9,61.41695 38.916949,63.4 36.476271,63.4 Z"
   id="path6-5"
   inkscape:connector-curvature="0"
   style="fill:#98e597;stroke-width:1.52542353" /><path
   class="st0"
   d="M 36.476271,19.4 H 27.323728 C 24.88305,19.4 22.9,17.41695 22.9,14.976272 V 5.823728 C 22.9,3.38305 24.88305,1.4 27.323728,1.4 h 9.152543 C 38.916949,1.4 40.9,3.38305 40.9,5.823728 v 9.152544 C 40.9,17.41695 38.916949,19.4 36.476271,19.4 Z"
   id="path6-1"
   inkscape:connector-curvature="0"
   style="fill:#98e597;stroke-width:1.52542353" /></svg>