<?xml version="1.0" encoding="UTF-8" standalone="no"?>
<svg xmlns:dc="http://purl.org/dc/elements/1.1/" xmlns:cc="http://creativecommons.org/ns#" xmlns:rdf="http://www.w3.org/1999/02/22-rdf-syntax-ns#"
    xmlns="http://www.w3.org/2000/svg" xmlns:sodipodi="http://sodipodi.sourceforge.net/DTD/sodipodi-0.dtd"
    xmlns:inkscape="http://www.inkscape.org/namespaces/inkscape" viewBox="0 0 64 64" version="1.1"
    id="svg12" sodipodi:docname="undo_up.svg" inkscape:version="0.92.3 (2405546, 2018-03-11)" width="64"
    height="64" style="clip-rule:evenodd;fill-rule:evenodd;image-rendering:optimizeQuality;shape-rendering:geometricPrecision;text-rendering:geometricPrecision">
  <metadata
     id="metadata16">
    <rdf:RDF>
      <cc:Work
         rdf:about="">
        <dc:format>image/svg+xml</dc:format>
        <dc:type
           rdf:resource="http://purl.org/dc/dcmitype/StillImage" />
        <dc:title></dc:title>
      </cc:Work>
    </rdf:RDF>
  </metadata>
  <sodipodi:namedview
     pagecolor="#ffffff"
     bordercolor="#666666"
     borderopacity="1"
     objecttolerance="10"
     gridtolerance="10"
     guidetolerance="10"
     inkscape:pageopacity="0"
     inkscape:pageshadow="2"
     inkscape:window-width="1920"
     inkscape:window-height="1017"
     id="namedview14"
     showgrid="true"
     inkscape:zoom="10.680141"
     inkscape:cx="19.32475"
     inkscape:cy="36.157538"
     inkscape:window-x="-8"
     inkscape:window-y="-8"
     inkscape:window-maximized="1"
     inkscape:current-layer="svg12">
    <inkscape:grid
       type="xygrid"
       id="grid817" />
  </sodipodi:namedview>
  <defs
     id="defs9">
    <style
       type="text/css"
       id="style2"><![CDATA[
    .str0 {stroke:#434242;stroke-width:10}
    .fil0 {fill:url(#id0)}
   ]]></style>
    <linearGradient
       gradientUnits="userSpaceOnUse"
       id="id0"
       x1="439.867"
       x2="60.000999"
       y1="249.99899"
       y2="249.99899"
       gradientTransform="matrix(0,1,1,0,0,0)">
      <stop
         offset="0"
         stop-color="#008BFF"
         id="stop4" />
      <stop
         offset="1"
         stop-color="#0af"
         id="stop6" />
    </linearGradient>
  </defs>
  <path
     class="fil0 str0"
     d="M 11.093024,46.210525 2.4418604,37.684212 C 1.7209302,36.973682 1,36.263162 1,34.842101 1,33.42105 2.4418604,32 3.8837208,32 H 6.7674415 C 7.6325585,32 8.2093019,31.431578 8.2093019,30.57895 8.930233,16.368425 20.897675,5 35.604651,5 50.744186,5 63,17.078945 63,32 63,46.352633 51.609302,58.147371 37.190698,59 36.75814,59 36.325581,58.857892 36.037209,58.573686 35.748837,58.28947 35.604651,58.005263 35.604651,57.57895 v -8.526315 c 0,-0.852637 0.576744,-1.42106 1.297674,-1.42106 C 45.12093,46.921055 51.465116,40.242106 51.465116,32 c 0,-8.668421 -7.065116,-15.631575 -15.860465,-15.631575 -8.218605,0 -14.995349,6.110526 -15.716279,14.068416 -0.144186,0.426315 0,0.852629 0.288372,1.136845 C 20.465116,31.857892 20.897675,32 21.186046,32 h 2.883721 c 1.441861,0 2.883722,1.42105 2.883722,2.842101 0,1.421061 -0.72093,2.131581 -1.441861,2.842111 l -8.651163,8.526313 c -1.874419,1.847366 -3.893023,1.847366 -5.767441,0 z"
     id="Layer_x0020_1"
     style="fill:#91dc5a;fill-opacity:1;stroke:none;stroke-width:1.43141866"
     inkscape:connector-curvature="0" />
  <path
     style="fill:#000000;stroke-width:0.05581395"
     d=""
     id="path834"
     inkscape:connector-curvature="0" />
</svg>
