<?xml version="1.0" encoding="UTF-8" standalone="no"?>
<!-- Generator: Adobe Illustrator 21.0.0, SVG Export Plug-In . SVG Version: 6.00 Build 0)  -->

<svg
   xmlns:dc="http://purl.org/dc/elements/1.1/"
   xmlns:cc="http://creativecommons.org/ns#"
   xmlns:rdf="http://www.w3.org/1999/02/22-rdf-syntax-ns#"
   xmlns="http://www.w3.org/2000/svg"
   xmlns:sodipodi="http://sodipodi.sourceforge.net/DTD/sodipodi-0.dtd"
   xmlns:inkscape="http://www.inkscape.org/namespaces/inkscape"
   version="1.1"
   id="Layer_1"
   x="0px"
   y="0px"
   viewBox="0 0 64 64"
   xml:space="preserve"
   sodipodi:docname="vertical_knob.svg"
   width="64"
   height="64"
   inkscape:version="0.92.3 (2405546, 2018-03-11)"><metadata
   id="metadata19"><rdf:RDF><cc:Work
       rdf:about=""><dc:format>image/svg+xml</dc:format><dc:type
         rdf:resource="http://purl.org/dc/dcmitype/StillImage" /><dc:title></dc:title></cc:Work></rdf:RDF></metadata><defs
   id="defs17" /><sodipodi:namedview
   pagecolor="#ffffff"
   bordercolor="#666666"
   borderopacity="1"
   objecttolerance="10"
   gridtolerance="10"
   guidetolerance="10"
   inkscape:pageopacity="0"
   inkscape:pageshadow="2"
   inkscape:window-width="640"
   inkscape:window-height="480"
   id="namedview15"
   showgrid="true"
   fit-margin-top="0"
   fit-margin-left="0"
   fit-margin-right="0"
   fit-margin-bottom="0"
   inkscape:zoom="13.125"
   inkscape:cx="11.619048"
   inkscape:cy="36.190476"
   inkscape:current-layer="Layer_1"><inkscape:grid
     type="xygrid"
     id="grid826"
     originx="0"
     originy="0" /></sodipodi:namedview>
<style
   type="text/css"
   id="style2">
	.st0{fill:none;stroke:#91DC5A;stroke-width:3;stroke-miterlimit:10;}
	.st1{fill:#91DC5A;}
</style>
<rect
   x="2"
   y="2"
   class="st0"
   width="60"
   height="60"
   id="rect4"
   style="fill:none;stroke:#91dc5a;stroke-width:4;stroke-miterlimit:10" />
<path
   class="st1"
   d="M 21.066667,28.133333 V 12.266667 L 32,4.933333 c 0,4.9333337 0,9.733334 0,14.666667 -3.6,2.933333 -7.333333,5.733333 -10.933333,8.533333 z"
   id="path6"
   inkscape:connector-curvature="0"
   style="fill:#91dc5a;stroke-width:1.33333337" />
<path
   class="st1"
   d="M 42.933333,28.133333 V 12.266667 L 32,4.933333 c 0,4.9333337 0,9.733334 0,14.666667 3.6,2.933333 7.333333,5.733333 10.933333,8.533333 z"
   id="path8"
   inkscape:connector-curvature="0"
   style="fill:#91dc5a;stroke-width:1.33333337" />
<path
   class="st1"
   d="M 21.066667,35.866667 V 51.733333 L 32,58.933333 C 32,54 32,49.2 32,44.266667 c -3.6,-2.8 -7.333333,-5.6 -10.933333,-8.4 z"
   id="path10"
   inkscape:connector-curvature="0"
   style="fill:#91dc5a;stroke-width:1.33333337" />
<path
   class="st1"
   d="M 42.933333,35.866667 V 51.733333 L 32,58.933333 C 32,54 32,49.2 32,44.266667 c 3.6,-2.8 7.333333,-5.6 10.933333,-8.4 z"
   id="path12"
   inkscape:connector-curvature="0"
   style="fill:#91dc5a;stroke-width:1.33333337" />
</svg>